{"title":"The Flash S02E13 Welcome to Earth-2 1080P WEB-DL DD5 1 H 264","uid":13488238,"size":1793295966,"categoryP":"video","categoryS":"hd___tv_shows","magnet":"?xt=urn:btih:fda44f9abddf524d74c686bb564c55fae10f8bc2&amp;dn=The+Flash+S02E13+Welcome+to+Earth-2+1080P+WEB-DL+DD5+1+H+264&amp;tr=udp%3A%2F%2Ftracker.leechers-paradise.org%3A6969&amp;tr=udp%3A%2F%2Fzer0day.ch%3A1337&amp;tr=udp%3A%2F%2Fopen.demonii.com%3A1337&amp;tr=udp%3A%2F%2Ftracker.coppersurfer.tk%3A6969&amp;tr=udp%3A%2F%2Fexodus.desync.com%3A6969","seeders":2,"leechers":1,"uploader":"jmanwf","files":2,"time":1455101585,"description":"Barry, Wells and Cisco journey to Earth-2 to rescue Wells’ daughter, Jesse (guest star Violett Beane) from Zoom. Although Barry’s stunned when he runs into Earth-2’s Iris and Joe, nothing prepares him for meeting Killer Frost (Danielle Panabaker) and Deathstorm (recurring guest star Robbie Amell). Meanwhile, back on Earth-1, Jay has to take over the Flash’s responsibilities when a meta-human nicknamed Geomancer (guest star Adam Stafford) attacks Central City.\r\n\r\nVideo\r\nID : 3\r\nFormat : AVC\r\nFormat/Info : Advanced Video Codec\r\nFormat profile :   \r\nFormat settings, CABAC : Yes\r\nFormat settings, ReFrames : 4 frames\r\nCodec ID : avc1\r\nCodec ID/Info : Advanced Video Coding\r\nDuration : 42mn 27s\r\nBit rate : 5 116 Kbps\r\nWidth : 1 916 pixels\r\nHeight : 1 076 pixels\r\nDisplay aspect ratio : 16:9\r\nFrame rate mode : Variable\r\nFrame rate : 23.976 fps\r\nMinimum frame rate : 23.976 fps\r\nMaximum frame rate : 28.274 fps\r\nColor space : YUV\r\nChroma subsampling : 4:2:0\r\nBit depth : 8 bits\r\nScan type : Progressive\r\nBits/(Pixel*Frame) : 0.103\r\nStream size : 1.52 GiB (91%)\r\nLanguage : English\r\nEncoded date : UTC 2016-02-10 09:09:23\r\nTagged date : UTC 2016-02-10 09:10:51\r\nColor range : Limited\r\nColor primaries : BT.709\r\nTransfer characteristics : BT.709\r\nMatrix coefficients : BT.709\r\n\r\nAudio #1\r\nID : 1\r\nFormat : AAC\r\nFormat/Info : Advanced Audio Codec\r\nFormat profile : LC\r\nCodec ID : 40\r\nDuration : 42mn 27s\r\nDuration_LastFrame : -11ms\r\nBit rate mode : Variable\r\nBit rate : 126 Kbps\r\nMaximum bit rate : 186 Kbps\r\nChannel(s) : 2 channels\r\nChannel positions : Front: L R\r\nSampling rate : 48.0 KHz\r\nCompression mode : Lossy\r\nStream size : 38.2 MiB (2%)\r\nLanguage : English\r\nEncoded date : UTC 2016-02-10 09:03:55\r\nTagged date : UTC 2016-02-10 09:06:36\r\n\r\nAudio #2\r\nID : 2\r\nFormat : AC-3\r\nFormat/Info : Audio Coding 3\r\nMode extension : CM (complete main)\r\nFormat settings, Endianness : Big\r\nCodec ID : ac-3\r\nDuration : 42mn 28s\r\nBit rate mode : Constant\r\nBit rate : 384 Kbps\r\nChannel(s) : 6 channels\r\nChannel positions : Front: L C R, Side: L R, LFE\r\nSampling rate : 48.0 KHz\r\nBit depth : 16 bits\r\nCompression mode : Lossy\r\nStream size : 117 MiB (7%)\r\nLanguage : English\r\nEncoded date : UTC 2016-02-10 09:06:37\r\nTagged date : UTC 2016-02-10 09:09:22\r\n\r\nText\r\nID : 4-CC1\r\nFormat : EIA-608\r\nMuxing mode : Final Cut\r\nCodec ID : c608\r\nDuration : 42mn 22s\r\nBit rate mode : Constant\r\nStream size : 0.00 Byte (0%)\r\nLanguage : English\r\nEncoded date : UTC 2016-02-10 09:10:52\r\nTagged date : UTC 2016-02-10 09:10:56","torrent":{"xt":"urn:btih:fda44f9abddf524d74c686bb564c55fae10f8bc2","amp;dn":"The+Flash+S02E13+Welcome+to+Earth-2+1080P+WEB-DL+DD5+1+H+264","amp;tr":["udp%3A%2F%2Ftracker.leechers-paradise.org%3A6969","udp%3A%2F%2Fzer0day.ch%3A1337","udp%3A%2F%2Fopen.demonii.com%3A1337","udp%3A%2F%2Ftracker.coppersurfer.tk%3A6969","udp%3A%2F%2Fexodus.desync.com%3A6969"],"infoHash":"fda44f9abddf524d74c686bb564c55fae10f8bc2","infoHashBuffer":{"type":"Buffer","data":[253,164,79,154,189,223,82,77,116,198,134,187,86,76,85,250,225,15,139,194]},"announce":[],"urlList":[]}}